/* XPM */
static char *_2af1c96f4c9470bf4dfebae481f211dx99I8S8sjRME8K6q[] = {
/* columns rows colors chars-per-pixel */
"44 44 4 1 ",
"  c None",
". c #78A158",
"X c #A4C263",
"o c #C0D470",
/* pixels */
"      ................................      ",
"   ......XXXXXXXX...XXXXX..XXXXXXXX......   ",
"  ..XXXXXXXXXXXXXXXXXXXXXXXXXXXXXXXXXXX...  ",
" ..XXXXXXXXXXXoXXXXXXXoXXXXXooooXXXXXXXXX.. ",
" .XXXXXXoXooooooooXooXooXoooooooXoXXXXXXX.. ",
" ..XXXXooooXooooXooooooooooXooooooooXoXXX.. ",
"...XXXoooooooooooooooooXoooooooooooooooXXX..",
"..XXXoooooooooooooooooooooooooooooooooooXX..",
"..XXXXooooooooooooooooooooooooooXoooooooXXX.",
".XXXoooooooooooooooooooooooooooooooooXooXXX.",
".XXXoooooooXoooooooooooooooooooooooooooooX..",
".XXXoXooooooooooooooooooooooooooooooooooXX..",
".XXooooooooooooooooooooooooooooooooooooooXX.",
".XXooooooooooooooooooooooooooooooooooooooXX.",
".XXXoooooooooooooooooooooooooooooooooooooXX.",
".XXooXoooooooooooooooooooooooooooooooooooXX.",
".XXooooooooooooooooooooooooooooooooXooooXXX.",
"..XXoooooXoooooooooooooooooooooooooooooXXX..",
"..XXXoooooooooooooooooooooooooooooooooooXX..",
"..XXoooooooooooooooooooooooooooooooooooXXX..",
".XXXooXooooooooooooooooooooooooooooooooXXXX.",
".XXoooooooooooooooooooooooooooooooooooooXXX.",
".XXooooooooooooooooooooooooooooooooooXooXXX.",
".XXXooooooooooooooooooooooooooooooooooooXXX.",
"..XXooooooooooooooooooooooooooooooooooooXXX.",
"..XXooooooooooooooooooooooooooooooXooooXXXX.",
".XXXXooXooooooooooooooooooooooooooooooooXX..",
".XXXoooooooooooooooooooooooooooooooooXoooX..",
".XXooooooooooooooooooooooooooooooooooooooXX.",
".XXXoooooooooooooooooooooooooooooooooooooXX.",
".XXoooooooooooooooooooooooooooooooooooooXX..",
".XXXooooooooooooooooooooooooooooooooooooXX..",
"..XXXooooooooooooooooooooooooooooooXoooXXXX.",
"..XXooooXoooooooooooooooooooooooooooooooXXX.",
".XXXXooooooooooooooooooooooooooooooooooXXXX.",
".XXXoooooooXooooooooooooooooooooooooooooXX..",
"..XXooooooooooooXoooooooooXoooooooooooooXX..",
"..XXXXoooooooooooooooooooooooooooXooXooXXX..",
" .XXXooooXooooooooooXooooooooooooooooooXX.. ",
" ..XXXooXooooooooXooooooXooXooooooooooXXX.. ",
" ..XXXXXXXXoXoooXXXXoooXXXXXXoooXooXXXXXX.. ",
"  ..XXXXXXXXXXXXXXXXXXXXXXXXXXXXXXXXXXXX..  ",
"   ......X..XXXX...XXXXX...XXXXX..XX.....   ",
"      ................................      "
};
