/* XPM */
static char *_2ede59b81e04585b1cb99c9e43ffe8aWxo5vNnJzKWZBM0D[] = {
/* columns rows colors chars-per-pixel */
"32 32 50 1 ",
"  c None",
". c #A77A5C",
"X c #AA7959",
"o c #AC7B5A",
"O c #AD7D5B",
"+ c #AD7E5B",
"@ c #AA7E5E",
"# c #A47B61",
"$ c #A17D65",
"% c #B1815E",
"& c #B1825E",
"* c #B2845F",
"= c #9F8574",
"- c #A78064",
"; c #AB8567",
": c #AC8A6C",
"> c #B38560",
", c #B08562",
"< c #B78A62",
"1 c #B88B63",
"2 c #BA8E64",
"3 c #BC9066",
"4 c #BD9167",
"5 c #BE9267",
"6 c #BE936B",
"7 c #BF9468",
"8 c #A08371",
"9 c #A18571",
"0 c #A68C75",
"q c #A78F7A",
"w c #AB927B",
"e c #C19669",
"r c #C1976A",
"t c #C2986B",
"y c #C3986B",
"u c #C3996B",
"i c #C4996C",
"p c #C49A6C",
"a c #C29971",
"s c #C49D74",
"d c #CCA67A",
"f c #A28E81",
"g c #A79484",
"h c #D7B78E",
"j c #DBBC91",
"k c #DBBC94",
"l c #E3C89E",
"z c #E5CAA0",
"x c #E7CDA4",
"c c #E8CFA6",
/* pixels */
"                                ",
"                                ",
"                                ",
"      666w            666w      ",
"     sccckq          sccckq     ",
"     azcxh0          azcxh0     ",
"     &dlj4O1eeeeeee4*&dlj4O     ",
"     &ppp4.$$$$$$$$$#&ppp4.     ",
"     &uee48          &uee48     ",
"     &4X&4O1eeeeeee4*&4X&4O     ",
"     &4X&4XXXXXXXXXXX&4X&4X     ",
"     O>XO>.$$$$$$$$$#O>XO>.     ",
"     ->XO>f          ->XO>f     ",
"      ;X@g            ;X@g      ",
"       X=              X=       ",
"       X=              X=       ",
"       X=              X=       ",
"       X=              X=       ",
"       o9              o9       ",
"      666w            666w      ",
"     sccckq          sccckq     ",
"     azcxh0          azcxh0     ",
"     &dlj4O1eeeeeee4*&dlj4O     ",
"     &ppp4.$$$$$$$$$#&ppp4.     ",
"     &ppp48          &ppp48     ",
"     &ppp4O1eeeeeee4*&ppp4O     ",
"     &upp4XXXXXXXXXXX&upp4X     ",
"     O2u7>.$$$$$$$$$#O2u7>.     ",
"     -<<<>f          -<<<>f     ",
"      :::g            :::g      ",
"                                ",
"                                "
};
