/* XPM */
static char *_b2234b168284acabad8562813cbd6b8FScS1vND5CDAIsCY[] = {
/* columns rows colors chars-per-pixel */
"32 32 17 1 ",
"  c #A4C263",
". c #C0D470",
"X c #5C4E92",
"o c #65599A",
"O c #766DAA",
"+ c #897DAC",
"@ c #969989",
"# c #9087A2",
"$ c #A19BB2",
"% c #BFB9B0",
"& c #BBC789",
"* c #C8C4B8",
"= c #B0A6C4",
"- c #DDD5DE",
"; c #E5DFD4",
": c #EBE8CA",
"> c #F3F2C0",
/* pixels */
"................. ..............",
"................................",
".......................... .....",
"............................... ",
"..... ..........................",
"................................",
"................................",
"...........@@@....@@@...........",
"..........@%%%@..@%%%@..........",
"..........X>>>X@@X>>>X..........",
"..........X>>>====>>>X....... ..",
"... ......X>>>::::>>>X..........",
"..........X>>>>>>>>>>X..........",
".........@X>>>>>>>>>>X@.........",
" ........&X>>>>>>>>>>X&.........",
".........@X>>>>>>>>>>X@.........",
".........&X>>>>>>>>>>X&........ ",
"..........&##$$$$$$##&..........",
"..........@=%OOooOO%=@..........",
"..........X->*o%%o*>-X...... ...",
". ........&+#>%>>%>#+&..........",
"...........&X;;##;;X&.......... ",
"............&++&&++&............",
".............&&..&&.............",
"................................",
"................................",
"............................. ..",
".. .............................",
"................................",
"..... ..........................",
".......... ......... ...........",
"........................... .. ."
};
