/* XPM */
static char *_87305fe910c4e20cc9fe9e23afd89d3Bhvr5PgAxopsOQ8H[] = {
/* columns rows colors chars-per-pixel */
"32 32 11 1 ",
"  c #90625D",
". c #AA7959",
"X c #B09643",
"o c #BFA954",
"O c #C49A6C",
"+ c #A4C263",
"@ c #D4C169",
"# c #C0D470",
"$ c #EAE178",
"% c #DCB98A",
"& c #F4F4A0",
/* pixels */
"#################+##############",
"################################",
"##########################+#####",
"###############################+",
"#####+##########################",
"################################",
"################################",
"################################",
"################################",
"#########  ##########  #########",
"######## @@          @@ #####+##",
"###+### $$$O%%%%%%%%O$$$ #######",
"####### $$OOOO%%%%OOOO$$ #######",
"####### $$OOOOOOOOOOOO$$ #######",
"+###### $$OOOOOOOOOOOO$$ #######",
"####### &$$$$$$$$$$$$$$& #######",
"####### X&&&&&&&&&&&&&&X ######+",
"####### oX     $@     Xo #######",
"####### oo.....@@.....oo #######",
"####### @o............o@ ###+###",
"#+###### @@@@@@@@@@@@@@ ########",
"#########              ########+",
"################################",
"################################",
"################################",
"################################",
"#############################+##",
"##+#############################",
"################################",
"#####+##########################",
"##########+#########+###########",
"###########################+##+#"
};
