/* XPM */
static char *d7fc83786bc74461d98cd1b6b751b68elCGvtmzPiHO65l9S[] = {
/* columns rows colors chars-per-pixel */
"16 16 52 1 ",
"  c None",
". c #774E60",
"X c #7C5666",
"o c #94685E",
"O c #8C6361",
"+ c #8F6662",
"@ c #8E6A66",
"# c #89666F",
"$ c #8E6E6B",
"% c #946865",
"& c #9A6F65",
"* c #926E69",
"= c #9C7262",
"- c #9C7363",
"; c #9A7168",
": c #9B7268",
"> c #99736B",
", c #9F7469",
"< c #8A6770",
"1 c #967171",
"2 c #977371",
"3 c #C1996F",
"4 c #C79F71",
"5 c #CCB568",
"6 c #CFBB69",
"7 c #CEB86B",
"8 c #D3BF69",
"9 c #CCA97A",
"0 c #D5C26D",
"q c #D9C977",
"w c #BC7B80",
"e c #C27E84",
"r c #DFC49F",
"t c #E2C79D",
"y c #E8D0A7",
"u c #E9D1A8",
"i c #EAD5AA",
"p c #E2DAB0",
"a c #E6E0B6",
"s c #E8E3B1",
"d c #E8E2B5",
"f c #EEE9B7",
"g c #ECE8BA",
"h c #ECE9BB",
"j c #EEEABA",
"k c #F1EFBB",
"l c #F0EBBC",
"z c #F0EBBD",
"x c #F2EEBD",
"c c #F2F1BF",
"v c #F3F2BF",
"b c #F3F2C0",
/* pixels */
"                ",
"                ",
"       $++      ",
"      $wee%     ",
"     $plllh:    ",
"    $p#Xab<.O   ",
"    @dhhcq7s:   ",
"   $pcbbbkkc:   ",
"  $pcbbbbbbb:   ",
"  @rxbb9fbbi&   ",
"   *344tyuu,    ",
"    258=70=     ",
"     2o 2o      ",
"                ",
"                ",
"                "
};
