/* XPM */
static char *_f10a0580af64760f1a4061435eb7f6fUtFVL8Y6faf24UzC[] = {
/* columns rows colors chars-per-pixel */
"32 32 8 1 ",
"  c None",
". c #754C60",
"X c #C49A6C",
"o c #DCB98A",
"O c #AA7959",
"+ c #90625D",
"@ c #E8CFA6",
"# c white",
/* pixels */
"   .XXXXXXXXXXXXXXXXXXXXXXXX.   ",
"   .XXX.oooooooooooooooo.XXX.   ",
"   .XXX.OOOOOOOOOOOOOOOO.XXX.   ",
"   .XXX.OOOOOOOOOOOOOOOO.XXX.   ",
"   .XXX.++++++++++++++++.XXX.   ",
"   .XXX.OOOOOOOOOOOOOOOO.XXX.   ",
"   .XXX.OOOOOOOOOOOOOOOO.XXX.   ",
"   .XXX.OOOOOOOOOOOOOOOO.XXX.   ",
"   .XXX.++++++++++++++++.XXX.   ",
"   .XXX.OOOOOOOOOOOOOOOO.XXX.   ",
"   .XXX.OOOOOOOOOOOOOOOO.XXX.   ",
"   .XXX.OOOOOOOOOOOOOOOO.XXX.   ",
"   .XXX..................XXX.   ",
"   .XXX.@@o@@@@@@@o@@@@@.XXX.   ",
"   .XXX.@@o@@@@@@@o@@@@@.XXX.   ",
"   .XXX.@@o@@@@@@@o@@@@@.XXX.   ",
"   .XXX.oooooooooooooooo.XXX.   ",
"   .XXX.@@@@@@o@@@@@@@o@.XXX.   ",
"   .XXX.@@@@@@o@@@@@@@o@.XXX.   ",
"   .XXX.@@@@@@o@@@@@@@o@.XXX.   ",
"   .XXX.oooooooooooooooo.XXX.   ",
"   .XXX.@@o@@@@@@@o@@@@@.XXX.   ",
"   .XXX.@@o@@@@@@@o@@@@@.XXX.   ",
"   .XXX.@@o@@@@@@@o@@@@@.XXX.   ",
"   .XXX.oooooooooooooooo.XXX.   ",
"   .XXX.@@@@@@o@@@@@@@o@.XXX.   ",
"   .XXX.@@@@@@o@@@@@@@o@.XXX.   ",
"   .XXX.@@@@@@o@@@@@@@o@.XXX.   ",
"   .XXX.oooooooooooooooo.XXX.   ",
"   .XXX..................XXX.   ",
"   .XXXXXXXXXXXXXXXXXXXXXXXX.   ",
"   .XXXXXXXXXXXXXXXXXXXXXXXX.   "
};
