/* XPM */
static char *_46b64ec9a204b01c9af8f81e96d01a6rVNiIGJNM9E0Soz5[] = {
/* columns rows colors chars-per-pixel */
"32 32 11 1 ",
"  c black",
". c gray18",
"X c #353434",
"o c #444444",
"O c #464646",
"+ c #484848",
"@ c #754C60",
"# c gray38",
"$ c #C49A6C",
"% c #A4C263",
"& c #C0D470",
/* pixels */
"&&&@$$$$$$$$$$$$$$$$$$$$$$$$@&&&",
"&&&@$$$...XXX            $$$@&&&",
"&&&@$$$###++X            $$$@&&&",
"&&&@$$$###++X            $$$@&&%",
"&&&@$$$+###+.            $$$@&&&",
"&&&@$$$++##+.......      $$$@&&&",
"&&&@$$$+++++.+++++.      $$$@&&&",
"&&&@$$$+++++X+++++.      $$$@&&&",
"&&&@$$$+++++X#++++X      $$$@&&&",
"&&&@$$$+++++X#++++X......$$$@&&&",
"&&&@$$$+++++X+++++.+++++.$$$@%&&",
"&&&@$$$+++#+X+###+X+++++.$$$@&&&",
"&&&@$$$+###+X####+X+++#+.$$$@&&&",
"&&&@$$$+###+X+###+X+++#+.$$$@&&&",
"%&&@$$$++##+X++##+X+++++.$$$@&&&",
"&&&@$$$++##+X+++#+X+++++.$$$@&&&",
"&&&@$$$++##+X+++++X+#+++.$$$@&&%",
"&&&@$$$+++++X+++++X+++++.$$$@&&&",
"&&&@$$$++O++X+++++X+++++.$$$@&&&",
"&&&@$$$+++++X+++++X+++#+.$$$@&&&",
"&%&@$$$+++++X+++++X+####.$$$@&&&",
"&&&@$$$+++++X+##++X+####.$$$@&&%",
"&&&@$$$+++O+X+##++XO+###.$$$@&&&",
"&&&@$$$+#+++X+###+XO++##.$$$@&&&",
"&&&@$$$+##++X+###+XO++++.$$$@&&&",
"&&&@$$$+###+X+#+++XO++++.$$$@&&&",
"&&&@$$$###++X++#++X+++++.$$$@%&&",
"&&%@$$$##+++X++#++X+##++.$$$@&&&",
"&&&@$$$+++++X+++++X###++.$$$@&&&",
"&&&@$$$+++++X+++++X+##++.$$$@&&&",
"&&&@$$$$$$$$$$$$$$$$$$$$$$$$@&&&",
"&&&@$$$$$$$$$$$$$$$$$$$$$$$$@&%&"
};
