/* XPM */
static char *_495c6a5f73c40bfcf1f695c07c84471hfieULgvZ1XqEr8E[] = {
/* columns rows colors chars-per-pixel */
"32 32 78 1 ",
"  c #545959",
". c #555A59",
"X c #54595A",
"o c #555A5A",
"O c #575C5C",
"+ c #575D5C",
"@ c #585D5D",
"# c #5A5F5E",
"$ c #5B615F",
"% c #626765",
"& c #696F74",
"* c #6B7470",
"= c #7C8475",
"- c #7C8476",
"; c #7C847A",
": c #7D847B",
"> c #7D857B",
", c #A4C263",
"< c #C0D470",
"1 c #C0D471",
"2 c #C4D57F",
"3 c #C4D67E",
"4 c #DCD37F",
"5 c #EAE178",
"6 c #5C4E92",
"7 c #5D4F92",
"8 c #6F5F98",
"9 c #6C5F9B",
"0 c #6E608F",
"q c #6F618F",
"w c #716A8C",
"e c #726A8C",
"r c #736B8C",
"t c #736D8C",
"y c #6F6298",
"u c #6D609B",
"i c #706198",
"p c #706498",
"a c #766DAA",
"s c #776EAA",
"d c #857DAD",
"f c #867EAD",
"g c #818B83",
"h c #848F86",
"j c #89928A",
"k c #89938A",
"l c #949E92",
"z c #9DA89A",
"x c #A1AB9D",
"c c #A1AC9E",
"v c #B3BAAD",
"b c #B5BDAF",
"n c #B6BDAF",
"m c #E7B4AC",
"M c #E8B5AC",
"N c #E8BCAE",
"B c #E9BDAE",
"V c #E9BDAF",
"C c #EBE381",
"Z c #DFDCBA",
"A c #E0DDBA",
"S c #E0DEBA",
"D c #E3E0BD",
"F c #E3E1BD",
"G c #F0E9BD",
"H c #F2EABD",
"J c #F2EABE",
"K c #CCC3D4",
"L c #CDC4D4",
"P c #DCD4DD",
"I c #DDD5DE",
"U c #DFD8DA",
"Y c #F2DAC4",
"T c #F3DBC4",
"R c #E0D9DA",
"E c #F0EEC4",
"W c #F2F1C0",
"Q c #F3F2C0",
/* pixels */
"<<<<<<<<<<<<<<<<<,<<<<<<<<<<<<<<",
"<<<<<<<<<<<<<<<<<<<<<<<<<<<<<<<<",
"<<<<<<<<<<<<<<<<<<<<<<<<<<,<<<<<",
"<<<<<<<<<<<<<<<<<<<<<<<<<<<<<<<,",
"<<<<<,<<<<<<<<<<<<<<<<<<<<<<<<<<",
"<<<<<<<<<<<<<<<<<<<<<<<<<<<<<<<<",
"<<<<<<<<<<<<<<<<<<<<<<<<<<<<<<<<",
"<<<<<<<<<<<<wwt<<<<wwt<<<<<<<<<<",
"<<<<<<<<<<<wAAZt<<wAAZt<<<<<<<<<",
"<<<<<<<<<<<7BBW7ww7WBB7<<<<<<<<<",
"<<<<<<<<<<<7MMWLLLLWMm7<<<<<<,<<",
"<<<,<<<<<<<7JJWIIIIWJJ7<<<<<<<<<",
"<<<<<<<<<<<7WWWIIIIWWW7<<<<<<<<<",
"<<<<<<<<<<w7WWWEEEEWWW7t<<<<<<<<",
",<<<<<<<<<27WpWWWWWWpW72<<<<<<<<",
"<<<<<<<<<<=&:AWWWWWWAW7t<<<<<<<<",
"<<<<<<<<<=***:WWWWWWTT72<<<<<<<,",
"<<<<<<<<=b++#b:fffff8i2<<<<<<<<<",
"<<<<<<<<*kvvvk*s4FssAKt<<<<<<<<<",
"<<<<<<<<+gx%cg#F5CFFWI7<<<<<,<<<",
"<,<<<<<<.gzlzg.UqqRUuu2<<<<<<<<<",
"<<<<<<<<.ghhhg.u228u22<<<<<<<<<,",
"<<<<<<<<.ggggg.2<<22<<<<<<<<<<<<",
"<<<<<<<<2####$2<<<<<<<<<<<<<<<<<",
"<<<<<<<<<22222<<<<<<<<<<<<<<<<<<",
"<<<<<<<<<<<<<<<<<<<<<<<<<<<<<<<<",
"<<<<<<<<<<<<<<<<<<<<<<<<<<<<<,<<",
"<<,<<<<<<<<<<<<<<<<<<<<<<<<<<<<<",
"<<<<<<<<<<<<<<<<<<<<<<<<<<<<<<<<",
"<<<<<,<<<<<<<<<<<<<<<<<<<<<<<<<<",
"<<<<<<<<<<,<<<<<<<<<,<<<<<<<<<<<",
"<<<<<<<<<<<<<<<<<<<<<<<<<<<,<<,<"
};
