/* XPM */
static char *_0c410f727164951da40503f2b606d175Gqa44qBKoWn1MLn[] = {
/* columns rows colors chars-per-pixel */
"32 32 65 1 ",
"  c #A4C263",
". c #C0D470",
"X c #C4D67C",
"o c #C4D67D",
"O c #6D648D",
"+ c #70688B",
"@ c #6D6197",
"# c #7C719C",
"$ c #796FA2",
"% c #766DAA",
"& c #817E8A",
"* c #847CAC",
"= c #9E938C",
"- c #999D89",
"; c #9B9799",
": c #A19D9C",
"> c #A0A48B",
", c #A6AC8B",
"< c #A7AE8A",
"1 c #A5AB8C",
"2 c #AFB98A",
"3 c #B3B886",
"4 c #B4BE8A",
"5 c #948FA2",
"6 c #9993A7",
"7 c #978CB5",
"8 c #A59DAA",
"9 c #B09EB6",
"0 c #ADA6AB",
"q c #B3ACAC",
"w c #BCB6AF",
"e c #ADA7B1",
"r c #B0A1B6",
"t c #B0A9B0",
"y c #B0A8B5",
"u c #B0AAB4",
"i c #B4AEB7",
"p c #B9B5B6",
"a c #E8B5AC",
"s c #B9C589",
"d c #CFC580",
"f c #C3D284",
"g c #C4D384",
"h c #C4D484",
"j c #C6C2B8",
"k c #D3CFB6",
"l c #EAC2B0",
"z c #E0C8B3",
"x c #EDD1B5",
"c c #EED6B7",
"v c #E2DFBB",
"b c #E0DDBE",
"n c #EFDCB9",
"m c #E4E2BC",
"M c #F1E5BC",
"N c #F2EBBE",
"B c #F2ECBE",
"V c #C2B9CE",
"C c #D8D3C8",
"Z c #EEECC6",
"A c #F3E4C3",
"S c #F3E7C2",
"D c #F3EFC1",
"F c #F3F2C0",
"G c #E7E2D0",
/* pixels */
"................. ..............",
"................................",
".......................... .....",
"............................... ",
"..... ..........................",
"................................",
"................................",
"..............o<<4..............",
".............o>00:4.............",
"............o-#Nxz:4............",
"...........o>0wMalk&......... ..",
"... .......f#FFBcnk&............",
"...........f#FFFFFk&............",
"..........o-#FFFFFkO4...........",
" .........f@wvqFFFk+s...........",
"..........f#FmwFFFkO4...........",
"..........f#FFDAAFk+s.......... ",
"..........o<8uu9re;s............",
"...........g=%%%*i64............",
"...........hd$ppjZV&........ ...",
". .........o3#FFFb5s............",
"............o<tGC;s............ ",
".............o175s..............",
"..............o2s...............",
"................................",
"................................",
"............................. ..",
".. .............................",
"................................",
"..... ..........................",
".......... ......... ...........",
"........................... .. ."
};
