/* XPM */
static char *_ef8049e6f4c42afac25b07591fcab4aqUHN8LUaxZcChZdU[] = {
/* columns rows colors chars-per-pixel */
"32 32 47 1 ",
"  c #A4C263",
". c #C7C67D",
"X c #C0D470",
"o c #C0D471",
"O c #C1D472",
"+ c #E9E079",
"@ c #5C4E92",
"# c #5D4F92",
"$ c #5E5191",
"% c #5D5092",
"& c #5E5093",
"* c #776A8D",
"= c #7D7A8A",
"- c #7D7A8B",
"; c #7E7B8A",
": c #796D9B",
"> c #7A6E9A",
", c #7A6F9B",
"< c #7167A6",
"1 c #7669A0",
"2 c #766DAA",
"3 c #8E86AE",
"4 c #8F88AE",
"5 c #E8B5AC",
"6 c #E8B6AC",
"7 c #C3D383",
"8 c #C3D483",
"9 c #C3D384",
"0 c #D4D1B6",
"q c #D6D3B7",
"w c #DBD8BC",
"e c #DBD9BC",
"r c #EAC1B0",
"t c #EFE5BC",
"y c #F1E6BC",
"u c #F1F0BF",
"i c #C3BACE",
"p c #C4BBCF",
"a c #DBC4C0",
"s c #DBD3DD",
"d c #EEECC6",
"f c #EFECC6",
"g c #F3EDC1",
"h c #F2F0C0",
"j c #F2F1C0",
"k c #F3F1C0",
"l c #F3F2C0",
/* pixels */
"XXXXXXXXXXXXXXXXX XXXXXXXXXXXXXX",
"XXXXXXXXXXXXXXXXXXXXXXXXXXXXXXXX",
"XXXXXXXXXXXXXXXXXXXXXXXXXX XXXXX",
"XXXXXXXXXXXXXXXXXXXXXXXXXXXXXXX ",
"XXXXX XXXXXXXXXXXXXXXXXXXXXXXXXX",
"XXXXXXXXXXXXXXXXXXXXXXXXXXXXXXXX",
"XXXXXXXXXXXXXXXXXXXXXXXXXXXXXXXX",
"XXXXXXXXXXXXX877XXXXXXXXXXXXXXXX",
"XXXXXXXXXXXX8>>>9XXXXXXXXXXXXXXX",
"XXXXXXXXXXX8>tyl$9XXXXXXXXXXXXXX",
"XXXXXXXXXXX$u55l>>9XXXXXXXXXX XX",
"XXX XXXXXXX$urrlll$XXXXXXXXXXXXX",
"XXXXXXXXXXX$ulllll$XXXXXXXXXXXXX",
"XXXXXXXXXX8#ulllll$9XXXXXXXXXXXX",
" XXXXXXXXX;$ulll0l>#XXXXXXXXXXXX",
"XXXXXXXXXX8#ulll>ll$XXXXXXXXXXXX",
"XXXXXXXXXX;$ulgglll$XXXXXXXXXXX ",
"XXXXXXXXXXX;0waaww0;XXXXXXXXXXXX",
"XXXXXXXXXXX8132222*XXXXXXXXXXXXX",
"XXXXXXXXXXX$sl433<+XXXXXXXXX XXX",
"X XXXXXXXXX;illll$.XXXXXXXXXXXXX",
"XXXXXXXXXXXX;0ff0;XXXXXXXXXXXXX ",
"XXXXXXXXXXXXX;ip;XXXXXXXXXXXXXXX",
"XXXXXXXXXXXXXX;;XXXXXXXXXXXXXXXX",
"XXXXXXXXXXXXXXXXXXXXXXXXXXXXXXXX",
"XXXXXXXXXXXXXXXXXXXXXXXXXXXXXXXX",
"XXXXXXXXXXXXXXXXXXXXXXXXXXXXX XX",
"XX XXXXXXXXXXXXXXXXXXXXXXXXXXXXX",
"XXXXXXXXXXXXXXXXXXXXXXXXXXXXXXXX",
"XXXXX XXXXXXXXXXXXXXXXXXXXXXXXXX",
"XXXXXXXXXX XXXXXXXXX XXXXXXXXXXX",
"XXXXXXXXXXXXXXXXXXXXXXXXXXX XX X"
};
