/* XPM */
static char *_8baa3ffeb7047e2bc1a62c48b1fc8507n89KPd70uairIQ0[] = {
/* columns rows colors chars-per-pixel */
"32 32 76 1 ",
"  c #AA7959",
". c #AC7B5A",
"X c #AD7D5B",
"o c #AD7E5B",
"O c #A87D5D",
"+ c #AB815F",
"@ c #B1815E",
"# c #B1825E",
"$ c #B2845F",
"% c #A78462",
"& c #A58966",
"* c #A98865",
"= c #AD8D68",
"- c #B38560",
"; c #B18862",
": c #B78A62",
"> c #B88B63",
", c #BA8E64",
"< c #AF946D",
"1 c #BC9066",
"2 c #BD9167",
"3 c #BE9267",
"4 c #BE936B",
"5 c #BF9468",
"6 c #A89671",
"7 c #A89871",
"8 c #A89A73",
"9 c #AC9D74",
"0 c #AEA277",
"q c #ADA87B",
"w c #B0A278",
"e c #B0AB7D",
"r c #C19669",
"t c #C1976A",
"y c #C2986B",
"u c #C3986B",
"i c #C3996B",
"p c #C4996C",
"a c #C49A6C",
"s c #C29971",
"d c #C49D74",
"f c #CCA67A",
"g c #A4C263",
"h c #BDCA6F",
"j c #BFD06F",
"k c #AEC47B",
"l c #BED070",
"z c #BFD270",
"x c #C0D270",
"c c #C0D370",
"v c #C0D371",
"b c #C0D372",
"n c #C0D470",
"m c #C0D471",
"M c #C1D472",
"N c #C1D572",
"B c #C1D473",
"V c #C1D573",
"C c #C0D374",
"Z c #C2D574",
"A c #C2D575",
"S c #C4D67C",
"D c #C4D67F",
"F c #D7B78E",
"G c #DBBC91",
"H c #DBBC94",
"J c #BDC887",
"K c #BEC887",
"L c #BEC987",
"P c #C2CF86",
"I c #C3D285",
"U c #C2D086",
"Y c #E3C89E",
"T c #E5CAA0",
"R c #E7CDA4",
"E c #E8CFA6",
/* pixels */
"nnnnnnCnnnnnnnnnngnnnnnclnnnnnnn",
"nnnnnnnnnnnnnnnnnnnnnnnnnnnnnnnn",
"nnnnnAccnnnnnnnnnnnnnncjlngnnnnn",
"nnnnAL444wSnnnnnnnnnAL444wSnnnng",
"nnnnUdEEEH0nnnnnnnnnUdEEEH0nnnnn",
"nnnnUsTERF9SSSSSSSSSLsTERF9nnnnn",
"nnnnP#fYG2X>rrrrrrr2$#fYG2Xnnnnn",
"nnnnP#aaa2O&&&&&&&&&%#aaa2Olnnnn",
"nnnnP#irr26SSSSSSSSSL#irr26nnnnn",
"nnnnP#2 #2X>rrrrrrr2$#2 #2Xcnnnn",
"nnnnP#2 #2           #2 #2 nngnn",
"nnngPX- X-O&&&&&&&&&%X- X-Ohnnnn",
"nnnnU*- X;qnnnnnnnnnU*- X;qnnnnn",
"nnnnnU= +ennnnnnnnnnnU= +ennnnnn",
"gnnnnnP 8nnnnnnnnnnnnnP 8nnnnnnn",
"nnnnnnP 8nnnnnnnnnnnnnP 8nnnnnnn",
"nnnnnnP 8nnnnnnnnnnnnnP 8nnnnnng",
"nnnnnnP 8nnnnnnnnnnnnnP 8nnnnnnn",
"nnnnnAL.8SnnnnnnnnnnnAL.8Snnnnnn",
"nnnnAL444wSnnnnnnnnnAL444wSngnnn",
"ngnnUdEEEH0nnnnnnnnnUdEEEH0nnnnn",
"nnnnUsTERF9SISSSSSSSLsTERF9nnnng",
"nnnnP#fYG2X>rrrrrrr2$#fYG2Xnnnnn",
"nnnnP#aaa2O&&&&&&&&&%#aaa2Onnnnn",
"nnnnP#aaa26SSSSSSSSSL#aaa26nnnnn",
"nnnnP#aaa2X>rrrrrrr2$#aaa2Xcnnnn",
"nnnnP#iaa2           #iaa2 nngnn",
"nngnPX,i5-O&&&&&&&&&%X,i5-Ocnnnn",
"nnnnU*:::;qnnnnnnnnnU*:::;qnnnnn",
"nnnnnk<<<ennnnnnnnnnnU<<<ennnnnn",
"nnnnnnnnnngnnnnnnnnngnnnnnnnnnnn",
"nnnnnnnnnnnnnnnnnnnnnnnnnnngnngn"
};
