/* XPM */
static char *b427852ea7894c8ef95767d26b6e43448y55It34P6xmSXIW[] = {
/* columns rows colors chars-per-pixel */
"32 32 8 1 ",
"  c #754C60",
". c #90625D",
"X c #AA7959",
"o c #C49A6C",
"O c #A4C263",
"+ c #C0D470",
"@ c #DCB98A",
"# c #E8CFA6",
/* pixels */
"+++ oooooooooooooooooooooooo +++",
"+++ ooo @@@@@@@@@@@@@@@@ ooo +++",
"+++ ooo XXXXXXXXXXXXXXXX ooo +++",
"+++ ooo XXXXXXXXXXXXXXXX ooo ++O",
"+++ ooo ................ ooo +++",
"+++ ooo XXXXXXXXXXXXXXXX ooo +++",
"+++ ooo XXXXXXXXXXXXXXXX ooo +++",
"+++ ooo XXXXXXXXXXXXXXXX ooo +++",
"+++ ooo ................ ooo +++",
"+++ ooo XXXXXXXXXXXXXXXX ooo +++",
"+++ ooo XXXXXXXXXXXXXXXX ooo O++",
"+++ ooo XXXXXXXXXXXXXXXX ooo +++",
"+++ ooo                  ooo +++",
"+++ ooo ##@#######@##### ooo +++",
"O++ ooo ##@#######@##### ooo +++",
"+++ ooo ##@#######@##### ooo +++",
"+++ ooo @@@@@@@@@@@@@@@@ ooo ++O",
"+++ ooo ######@#######@# ooo +++",
"+++ ooo ######@#######@# ooo +++",
"+++ ooo ######@#######@# ooo +++",
"+O+ ooo @@@@@@@@@@@@@@@@ ooo +++",
"+++ ooo ##@#######@##### ooo ++O",
"+++ ooo ##@#######@##### ooo +++",
"+++ ooo ##@#######@##### ooo +++",
"+++ ooo @@@@@@@@@@@@@@@@ ooo +++",
"+++ ooo ######@#######@# ooo +++",
"+++ ooo ######@#######@# ooo O++",
"++O ooo ######@#######@# ooo +++",
"+++ ooo @@@@@@@@@@@@@@@@ ooo +++",
"+++ ooo                  ooo +++",
"+++ oooooooooooooooooooooooo +++",
"+++ oooooooooooooooooooooooo +O+"
};
