/* XPM */
static char *fc306131794e4131ca487b64c96a78c8Y24xyukY0oLnNeRc[] = {
/* columns rows colors chars-per-pixel */
"32 32 72 1 ",
"  c #None",
". c #545959",
"X c #54595A",
"o c #555A5A",
"O c #575C5C",
"+ c #575D5C",
"@ c #585D5D",
"# c #5A5F5E",
"$ c #5A605F",
"% c #626765",
"& c #696F74",
"* c #6B7470",
"= c #727976",
"- c #727977",
"; c #7C847A",
": c #7D847B",
"> c #7D857B",
", c #DCD37F",
"< c #EAE178",
"1 c #5C4E92",
"2 c #5D4F92",
"3 c #665B90",
"4 c #675B90",
"5 c #675D90",
"6 c #685C90",
"7 c #6F5F98",
"8 c #6C5F9B",
"9 c #6E608F",
"0 c #6F618F",
"q c #6F6098",
"w c #6F6298",
"e c #706498",
"r c #766DAA",
"t c #776EAA",
"y c #857DAD",
"u c #867EAD",
"i c #818B83",
"p c #848F86",
"a c #89928A",
"s c #89938A",
"d c #949E92",
"f c #9DA89A",
"g c #A1AB9D",
"h c #A1AC9E",
"j c #B3BAAD",
"k c #B5BDAF",
"l c #B6BDAF",
"z c #E7B4AC",
"x c #E8B5AC",
"c c #E8BCAE",
"v c #E9BDAE",
"b c #E9BDAF",
"n c #EBE381",
"m c #DFDCBA",
"M c #E0DDBA",
"N c #E0DEBA",
"B c #E3E0BD",
"V c #E3E1BD",
"C c #F0E9BD",
"Z c #F2EABD",
"A c #F2EABE",
"S c #CCC3D4",
"D c #CDC4D4",
"F c #DCD4DD",
"G c #DDD5DE",
"H c #DFD8DA",
"J c #F2DAC4",
"K c #F3DBC4",
"L c #E0D9DA",
"P c #F0EEC4",
"I c #F2F1C0",
"U c #F3F2C0",
/* pixels */
"                                ",
"                                ",
"                                ",
"                                ",
"                                ",
"                                ",
"                                ",
"                                ",
"            335    335          ",
"           6MMm5  6MMm5         ",
"           2bbI2332Ibb2         ",
"           2xxIDDDDIxz2         ",
"           2ZZIGGGGIZZ2         ",
"           2IIIGGGGIII2         ",
"          32IIIPPPPIII25        ",
"           2IeIIIIIIeI2         ",
"          -&:MIIIIIIMI25        ",
"         -***:IIIIIIKK2         ",
"        -k++#k:uuuuu8q          ",
"        *sjjjs*t,VttMS5         ",
"        +ig%hi#V<nVVIG2         ",
"        .ifdfi.H00LHq8          ",
"        .ipppi.8  88            ",
"        .iiiii.                 ",
"         ####$                  ",
"                                ",
"                                ",
"                                ",
"                                ",
"                                ",
"                                ",
"                                "
};
